<svg width="45" height="45" viewBox="0 0 45 45" fill="none" xmlns="http://www.w3.org/2000/svg">
<g id="notif">
<g id="Vector">
<mask id="path-1-inside-1_1254_270" fill="white">
<path d="M38.6934 30.5604C38.5475 30.3847 38.4042 30.2089 38.2636 30.0393C36.33 27.7005 35.1602 26.289 35.1602 19.6682C35.1602 16.2404 34.3401 13.4279 32.7238 11.3186C31.532 9.76025 29.921 8.57812 27.7976 7.70449C27.7702 7.68929 27.7458 7.66935 27.7255 7.64561C26.9617 5.08799 24.8717 3.375 22.5145 3.375C20.1572 3.375 18.0681 5.08799 17.3043 7.64297C17.2839 7.66584 17.2599 7.68515 17.2331 7.7001C12.2778 9.74004 9.86963 13.6538 9.86963 19.6655C9.86963 26.289 8.70156 27.7005 6.76621 30.0366C6.62559 30.2063 6.48232 30.3785 6.33643 30.5578C5.95955 31.0123 5.72077 31.5653 5.64834 32.1512C5.57591 32.7372 5.67287 33.3317 5.92773 33.8643C6.47002 35.0068 7.62578 35.7161 8.94502 35.7161H36.0936C37.4066 35.7161 38.5545 35.0077 39.0985 33.8704C39.3545 33.3377 39.4524 32.7428 39.3806 32.1561C39.3088 31.5695 39.0703 31.0157 38.6934 30.5604ZM22.5145 42.75C23.7845 42.749 25.0306 42.4042 26.1206 41.7523C27.2105 41.1004 28.1038 40.1656 28.7055 39.0472C28.7338 38.9936 28.7478 38.9335 28.7461 38.8729C28.7444 38.8123 28.7271 38.7532 28.6957 38.7013C28.6644 38.6493 28.6202 38.6064 28.5674 38.5766C28.5146 38.5468 28.455 38.5312 28.3943 38.5312H16.6363C16.5756 38.531 16.5159 38.5466 16.463 38.5763C16.41 38.606 16.3657 38.6489 16.3343 38.7009C16.3028 38.7528 16.2854 38.812 16.2837 38.8727C16.2819 38.9334 16.2959 38.9935 16.3243 39.0472C16.926 40.1655 17.819 41.1002 18.9088 41.7521C19.9986 42.404 21.2445 42.7488 22.5145 42.75Z"/>
</mask>
<path d="M38.6934 30.5604L41.0042 28.6473L41.0018 28.6444L38.6934 30.5604ZM38.2636 30.0393L35.9514 31.9508L35.954 31.9539L38.2636 30.0393ZM32.7238 11.3186L30.3409 13.1411L30.3425 13.1432L32.7238 11.3186ZM27.7976 7.70449L26.3392 10.3262L26.4932 10.4118L26.6561 10.4789L27.7976 7.70449ZM27.7255 7.64561L24.8509 8.50402L25.033 9.11389L25.4471 9.59727L27.7255 7.64561ZM17.3043 7.64297L19.5441 9.63883L19.9876 9.14103L20.1786 8.5022L17.3043 7.64297ZM17.2331 7.7001L18.3751 10.4742L18.5404 10.4062L18.6965 10.319L17.2331 7.7001ZM6.76621 30.0366L9.07577 31.9513L9.07642 31.9505L6.76621 30.0366ZM6.33643 30.5578L8.64578 32.4727L8.65462 32.4621L8.66337 32.4513L6.33643 30.5578ZM5.92773 33.8643L8.63798 32.5779L8.63384 32.5693L5.92773 33.8643ZM39.0985 33.8704L36.3945 32.5711L36.3922 32.5758L39.0985 33.8704ZM22.5145 42.75L22.5117 45.75L22.5169 45.75L22.5145 42.75ZM28.7055 39.0472L31.3474 40.4685L31.3525 40.4591L31.3574 40.4497L28.7055 39.0472ZM28.3943 38.5312V41.5312H28.3974L28.3943 38.5312ZM16.6363 38.5312L16.6258 41.5312H16.6363V38.5312ZM16.3243 39.0472L13.6723 40.4497L13.6773 40.4591L13.6824 40.4685L16.3243 39.0472ZM41.0018 28.6444C40.7845 28.3826 40.8073 28.4071 40.5731 28.1246L35.954 31.9539C36.0011 32.0107 36.3104 32.3867 36.3849 32.4765L41.0018 28.6444ZM40.5757 28.1277C39.5925 26.9385 39.1428 26.3625 38.807 25.4366C38.4486 24.4484 38.1602 22.8485 38.1602 19.6682H32.1602C32.1602 23.1086 32.4566 25.5249 33.1665 27.4823C33.899 29.5021 35.001 30.8012 35.9514 31.9508L40.5757 28.1277ZM38.1602 19.6682C38.1602 15.7741 37.2262 12.2621 35.1051 9.49389L30.3425 13.1432C31.454 14.5938 32.1602 16.7068 32.1602 19.6682H38.1602ZM35.1068 9.49605C33.5415 7.44941 31.469 5.97104 28.939 4.93013L26.6561 10.4789C28.373 11.1852 29.5226 12.0711 30.3409 13.1411L35.1068 9.49605ZM29.2559 5.08282C29.5396 5.24062 29.7928 5.44758 30.0039 5.69394L25.4471 9.59727C25.6988 9.89112 26.0009 10.138 26.3392 10.3262L29.2559 5.08282ZM30.6001 6.78719C29.5248 3.18662 26.4213 0.375 22.5145 0.375V6.375C23.322 6.375 24.3986 6.98936 24.8509 8.50402L30.6001 6.78719ZM22.5145 0.375C18.6077 0.375 15.5053 3.18639 14.43 6.78374L20.1786 8.5022C20.6308 6.98958 21.7068 6.375 22.5145 6.375V0.375ZM15.0645 5.64711C15.2664 5.42054 15.5048 5.22928 15.7697 5.08124L18.6965 10.319C19.0149 10.141 19.3014 9.91114 19.5441 9.63883L15.0645 5.64711ZM16.0911 4.92597C13.1231 6.1478 10.7423 8.01439 9.13815 10.6211C7.5508 13.2006 6.86963 16.2674 6.86963 19.6655H12.8696C12.8696 17.052 13.3926 15.156 14.2481 13.7657C15.0869 12.4026 16.3878 11.2923 18.3751 10.4742L16.0911 4.92597ZM6.86963 19.6655C6.86963 22.8478 6.5815 24.4483 6.22329 25.4364C5.88806 26.3611 5.43898 26.9362 4.456 28.1227L9.07642 31.9505C10.0288 30.8009 11.1314 29.5022 11.8641 27.4813C12.5737 25.5237 12.8696 23.1067 12.8696 19.6655H6.86963ZM4.45665 28.122C4.32034 28.2864 4.16622 28.4717 4.00948 28.6643L8.66337 32.4513C8.79843 32.2853 8.93083 32.1261 9.07577 31.9513L4.45665 28.122ZM4.02707 28.6429C3.28433 29.5386 2.81374 30.6284 2.671 31.7832L8.62568 32.5193C8.6278 32.5021 8.63477 32.486 8.64578 32.4727L4.02707 28.6429ZM2.671 31.7832C2.52826 32.9381 2.71934 34.1096 3.22163 35.1592L8.63384 32.5693C8.6264 32.5537 8.62357 32.5364 8.62568 32.5193L2.671 31.7832ZM3.2175 35.1506C4.28338 37.3964 6.53123 38.7161 8.94502 38.7161V32.7161C8.82612 32.7161 8.75259 32.6853 8.71425 32.6618C8.67746 32.6392 8.65464 32.6131 8.63797 32.5779L3.2175 35.1506ZM8.94502 38.7161H36.0936V32.7161H8.94502V38.7161ZM36.0936 38.7161C38.5098 38.7161 40.7402 37.3905 41.8048 35.165L36.3922 32.5758C36.3733 32.6153 36.3484 32.6425 36.3128 32.6644C36.2762 32.6869 36.2068 32.7161 36.0936 32.7161V38.7161ZM41.8026 35.1697C42.307 34.1199 42.4998 32.9476 42.3583 31.7916L36.4028 32.5206C36.4049 32.5379 36.402 32.5554 36.3945 32.5711L41.8026 35.1697ZM42.3583 31.7916C42.2168 30.6356 41.7469 29.5444 41.0042 28.6473L36.3825 32.4736C36.3936 32.487 36.4007 32.5033 36.4028 32.5206L42.3583 31.7916ZM22.5169 45.75C24.3284 45.7485 26.1058 45.2568 27.6605 44.3269L24.5807 39.1777C23.9554 39.5516 23.2406 39.7494 22.512 39.75L22.5169 45.75ZM27.6605 44.3269C29.2151 43.3971 30.4892 42.0638 31.3474 40.4685L26.0635 37.6259C25.7183 38.2675 25.206 38.8037 24.5807 39.1777L27.6605 44.3269ZM31.3574 40.4497C31.6277 39.9386 31.7612 39.3664 31.7449 38.7886L25.7473 38.9572C25.7345 38.5007 25.8399 38.0485 26.0535 37.6447L31.3574 40.4497ZM31.7449 38.7886C31.7287 38.2108 31.5633 37.647 31.2647 37.152L26.1267 40.2505C25.8908 39.8594 25.7601 39.4138 25.7473 38.9572L31.7449 38.7886ZM31.2647 37.152C30.9662 36.657 30.5447 36.2476 30.0412 35.9636L27.0936 41.1896C26.6957 40.9652 26.3626 40.6417 26.1267 40.2505L31.2647 37.152ZM30.0412 35.9636C29.5378 35.6796 28.9694 35.5307 28.3913 35.5312L28.3974 41.5312C27.9406 41.5317 27.4914 41.414 27.0936 41.1896L30.0412 35.9636ZM28.3943 35.5312H16.6363V41.5312H28.3943V35.5312ZM16.6469 35.5313C16.0681 35.5292 15.4986 35.6771 14.994 35.9605L17.9319 41.192C17.5331 41.416 17.0832 41.5328 16.6258 41.5312L16.6469 35.5313ZM14.994 35.9605C14.4894 36.2439 14.0667 36.6531 13.7672 37.1484L18.9013 40.2534C18.6646 40.6447 18.3306 40.9681 17.9319 41.192L14.994 35.9605ZM13.7672 37.1484C13.4677 37.6436 13.3015 38.208 13.2849 38.7865L19.2824 38.9589C19.2693 39.416 19.138 39.862 18.9013 40.2534L13.7672 37.1484ZM13.2849 38.7865C13.2683 39.3651 13.4018 39.9381 13.6723 40.4497L18.9763 37.6446C19.1901 38.0489 19.2956 38.5017 19.2824 38.9589L13.2849 38.7865ZM13.6824 40.4685C14.5405 42.0636 15.8143 43.3968 17.3688 44.3266L20.4489 39.1775C19.8237 38.8036 19.3114 38.2674 18.9663 37.6259L13.6824 40.4685ZM17.3688 44.3266C18.9232 45.2565 20.7003 45.7483 22.5117 45.75L22.5173 39.75C21.7888 39.7493 21.074 39.5515 20.4489 39.1775L17.3688 44.3266Z" fill="#073452" mask="url(#path-1-inside-1_1254_270)"/>
</g>
</g>
</svg>
