<svg width="61" height="61" viewBox="0 0 61 61" fill="none" xmlns="http://www.w3.org/2000/svg">
<g id="profile">
<path id="Vector" fill-rule="evenodd" clip-rule="evenodd" d="M30.5002 10.1666C26.9438 10.1659 23.4494 11.0981 20.3658 12.87C17.2823 14.6419 14.7174 17.1915 12.9271 20.2645C11.1369 23.3375 10.184 26.8262 10.1635 30.3826C10.1429 33.9389 11.0555 37.4385 12.8102 40.5319C13.9962 38.9906 15.5207 37.7426 17.2659 36.8845C19.0112 36.0264 20.9304 35.5812 22.8752 35.5833H38.1252C40.07 35.5812 41.9892 36.0264 43.7344 36.8845C45.4797 37.7426 47.0042 38.9906 48.1902 40.5319C49.9448 37.4385 50.8574 33.9389 50.8369 30.3826C50.8164 26.8262 49.8635 23.3375 48.0732 20.2645C46.283 17.1915 43.7181 14.6419 40.6345 12.87C37.551 11.0981 34.0566 10.1659 30.5002 10.1666ZM50.6886 45.9431C54.0869 41.5129 55.9251 36.0834 55.9169 30.4999C55.9169 16.4623 44.5378 5.08325 30.5002 5.08325C16.4626 5.08325 5.08352 16.4623 5.08352 30.4999C5.07513 36.0834 6.91328 41.513 10.3117 45.9431L10.299 45.9888L11.2013 47.0385C13.5851 49.8255 16.5449 52.0624 19.8766 53.5951C23.2083 55.1278 26.8328 55.9198 30.5002 55.9166C35.653 55.9261 40.6857 54.3608 44.9241 51.4305C46.7311 50.1821 48.3696 48.7059 49.7991 47.0385L50.7014 45.9888L50.6886 45.9431ZM30.5002 15.2499C28.4779 15.2499 26.5385 16.0533 25.1085 17.4832C23.6785 18.9132 22.8752 20.8526 22.8752 22.8749C22.8752 24.8972 23.6785 26.8366 25.1085 28.2666C26.5385 29.6966 28.4779 30.4999 30.5002 30.4999C32.5225 30.4999 34.4619 29.6966 35.8919 28.2666C37.3218 26.8366 38.1252 24.8972 38.1252 22.8749C38.1252 20.8526 37.3218 18.9132 35.8919 17.4832C34.4619 16.0533 32.5225 15.2499 30.5002 15.2499Z" fill="#073452"/>
</g>
</svg>
